<svg width="25" height="25" viewBox="0 0 25 25" fill="none" xmlns="http://www.w3.org/2000/svg">
<path d="M5.9231 22.3333C5.3731 22.3333 4.90226 22.1375 4.5106 21.7458C4.11893 21.3541 3.9231 20.8833 3.9231 20.3333V6.33331C3.9231 5.78331 4.11893 5.31248 4.5106 4.92081C4.90226 4.52915 5.3731 4.33331 5.9231 4.33331H6.9231V2.33331H8.9231V4.33331H16.9231V2.33331H18.9231V4.33331H19.9231C20.4731 4.33331 20.9439 4.52915 21.3356 4.92081C21.7273 5.31248 21.9231 5.78331 21.9231 6.33331V20.3333C21.9231 20.8833 21.7273 21.3541 21.3356 21.7458C20.9439 22.1375 20.4731 22.3333 19.9231 22.3333H5.9231ZM5.9231 20.3333H19.9231V10.3333H5.9231V20.3333ZM5.9231 8.33331H19.9231V6.33331H5.9231V8.33331Z" fill="#ffffff"/>
</svg>
