<svg width="25" height="25" viewBox="0 0 25 25" fill="none" xmlns="http://www.w3.org/2000/svg">
<path d="M5.76929 19.3333H7.19429L16.9693 9.55831L15.5443 8.13331L5.76929 17.9083V19.3333ZM3.76929 21.3333V17.0833L16.9693 3.90831C17.1693 3.72498 17.3901 3.58331 17.6318 3.48331C17.8735 3.38331 18.1276 3.33331 18.3943 3.33331C18.661 3.33331 18.9193 3.38331 19.1693 3.48331C19.4193 3.58331 19.636 3.73331 19.8193 3.93331L21.1943 5.33331C21.3943 5.51665 21.5401 5.73331 21.6318 5.98331C21.7235 6.23331 21.7693 6.48331 21.7693 6.73331C21.7693 6.99998 21.7235 7.25415 21.6318 7.49581C21.5401 7.73748 21.3943 7.95831 21.1943 8.15831L8.01929 21.3333H3.76929ZM16.2443 8.85831L15.5443 8.13331L16.9693 9.55831L16.2443 8.85831Z" fill="#CCCCCC"/>
</svg>
