<svg width="25" height="24" viewBox="0 0 25 24" fill="none" xmlns="http://www.w3.org/2000/svg">
<path d="M12.0769 21L10.6269 19.7C8.94357 18.1834 7.5519 16.875 6.4519 15.775C5.3519 14.675 4.4769 13.6875 3.8269 12.8125C3.1769 11.9375 2.72274 11.1334 2.4644 10.4C2.20607 9.66669 2.0769 8.91669 2.0769 8.15002C2.0769 6.58336 2.6019 5.27502 3.6519 4.22502C4.7019 3.17502 6.01024 2.65002 7.5769 2.65002C8.44357 2.65002 9.26857 2.83336 10.0519 3.20002C10.8352 3.56669 11.5102 4.08336 12.0769 4.75002C12.6436 4.08336 13.3186 3.56669 14.1019 3.20002C14.8852 2.83336 15.7102 2.65002 16.5769 2.65002C18.1436 2.65002 19.4519 3.17502 20.5019 4.22502C21.5519 5.27502 22.0769 6.58336 22.0769 8.15002C22.0769 8.91669 21.9477 9.66669 21.6894 10.4C21.4311 11.1334 20.9769 11.9375 20.3269 12.8125C19.6769 13.6875 18.8019 14.675 17.7019 15.775C16.6019 16.875 15.2102 18.1834 13.5269 19.7L12.0769 21Z" fill="#EA3323"/>
</svg>
