<svg width="24" height="25" viewBox="0 0 24 25" fill="none" xmlns="http://www.w3.org/2000/svg">
<path d="M4 20.3333C3.45 20.3333 2.97917 20.1375 2.5875 19.7458C2.19583 19.3541 2 18.8833 2 18.3333V6.33331C2 5.78331 2.19583 5.31248 2.5875 4.92081C2.97917 4.52915 3.45 4.33331 4 4.33331H20C20.55 4.33331 21.0208 4.52915 21.4125 4.92081C21.8042 5.31248 22 5.78331 22 6.33331V18.3333C22 18.8833 21.8042 19.3541 21.4125 19.7458C21.0208 20.1375 20.55 20.3333 20 20.3333H4ZM12 13.3333L4 8.33331V18.3333H20V8.33331L12 13.3333ZM12 11.3333L20 6.33331H4L12 11.3333ZM4 8.33331V6.33331V18.3333V8.33331Z" fill="#444444"/>
</svg>
