<svg width="25" height="25" viewBox="0 0 25 25" fill="none" xmlns="http://www.w3.org/2000/svg">
<path d="M5.46155 19.6667V5.66669V10.1417V9.66669V19.6667ZM7.46155 13.6667H12.9865C13.0199 13.3 13.1032 12.95 13.2365 12.6167C13.3699 12.2834 13.5365 11.9667 13.7365 11.6667H7.46155V13.6667ZM7.46155 17.6667H11.3865C11.6699 17.3334 11.9949 17.0625 12.3615 16.8542C12.7282 16.6459 13.1115 16.475 13.5115 16.3417C13.4449 16.2417 13.3865 16.1334 13.3365 16.0167C13.2865 15.9 13.2449 15.7834 13.2115 15.6667H7.46155V17.6667ZM7.46155 9.66669H17.4615V7.66669H7.46155V9.66669ZM5.46155 21.6667C4.91155 21.6667 4.44071 21.4709 4.04905 21.0792C3.65738 20.6875 3.46155 20.2167 3.46155 19.6667V5.66669C3.46155 5.11669 3.65738 4.64585 4.04905 4.25419C4.44071 3.86252 4.91155 3.66669 5.46155 3.66669H19.4615C20.0115 3.66669 20.4824 3.86252 20.874 4.25419C21.2657 4.64585 21.4615 5.11669 21.4615 5.66669V12.1167C21.2282 11.6834 20.9449 11.3 20.6115 10.9667C20.2782 10.6334 19.8949 10.3584 19.4615 10.1417V5.66669H5.46155V19.6667H10.5115C10.4949 19.7667 10.4824 19.8667 10.474 19.9667C10.4657 20.0667 10.4615 20.1667 10.4615 20.2667V21.6667H5.46155ZM17.4615 16.6667C16.7615 16.6667 16.1699 16.425 15.6865 15.9417C15.2032 15.4584 14.9615 14.8667 14.9615 14.1667C14.9615 13.4667 15.2032 12.875 15.6865 12.3917C16.1699 11.9084 16.7615 11.6667 17.4615 11.6667C18.1615 11.6667 18.7532 11.9084 19.2365 12.3917C19.7199 12.875 19.9615 13.4667 19.9615 14.1667C19.9615 14.8667 19.7199 15.4584 19.2365 15.9417C18.7532 16.425 18.1615 16.6667 17.4615 16.6667ZM12.4615 21.6667V20.2667C12.4615 19.8667 12.5657 19.4959 12.774 19.1542C12.9824 18.8125 13.2782 18.5667 13.6615 18.4167C14.2615 18.1667 14.8824 17.9792 15.524 17.8542C16.1657 17.7292 16.8115 17.6667 17.4615 17.6667C18.1115 17.6667 18.7574 17.7292 19.399 17.8542C20.0407 17.9792 20.6615 18.1667 21.2615 18.4167C21.6449 18.5667 21.9407 18.8125 22.149 19.1542C22.3574 19.4959 22.4615 19.8667 22.4615 20.2667V21.6667H12.4615Z" fill="#444444"/>
</svg>
