<svg width="25" height="25" viewBox="0 0 25 25" fill="none" xmlns="http://www.w3.org/2000/svg">
<path d="M6.15762 17.4333C7.00762 16.7833 7.95762 16.2708 9.00762 15.8958C10.0576 15.5208 11.1576 15.3333 12.3076 15.3333C13.4576 15.3333 14.5576 15.5208 15.6076 15.8958C16.6576 16.2708 17.6076 16.7833 18.4576 17.4333C19.041 16.75 19.4951 15.975 19.8201 15.1083C20.1451 14.2416 20.3076 13.3166 20.3076 12.3333C20.3076 10.1166 19.5285 8.22915 17.9701 6.67081C16.4118 5.11248 14.5243 4.33331 12.3076 4.33331C10.091 4.33331 8.20345 5.11248 6.64512 6.67081C5.08678 8.22915 4.30762 10.1166 4.30762 12.3333C4.30762 13.3166 4.47012 14.2416 4.79512 15.1083C5.12012 15.975 5.57428 16.75 6.15762 17.4333ZM12.3076 13.3333C11.3243 13.3333 10.4951 12.9958 9.82012 12.3208C9.14512 11.6458 8.80762 10.8166 8.80762 9.83331C8.80762 8.84998 9.14512 8.02081 9.82012 7.34581C10.4951 6.67081 11.3243 6.33331 12.3076 6.33331C13.291 6.33331 14.1201 6.67081 14.7951 7.34581C15.4701 8.02081 15.8076 8.84998 15.8076 9.83331C15.8076 10.8166 15.4701 11.6458 14.7951 12.3208C14.1201 12.9958 13.291 13.3333 12.3076 13.3333ZM12.3076 22.3333C10.9243 22.3333 9.62428 22.0708 8.40762 21.5458C7.19095 21.0208 6.13262 20.3083 5.23262 19.4083C4.33262 18.5083 3.62012 17.45 3.09512 16.2333C2.57012 15.0166 2.30762 13.7166 2.30762 12.3333C2.30762 10.95 2.57012 9.64998 3.09512 8.43331C3.62012 7.21665 4.33262 6.15831 5.23262 5.25831C6.13262 4.35831 7.19095 3.64581 8.40762 3.12081C9.62428 2.59581 10.9243 2.33331 12.3076 2.33331C13.691 2.33331 14.991 2.59581 16.2076 3.12081C17.4243 3.64581 18.4826 4.35831 19.3826 5.25831C20.2826 6.15831 20.9951 7.21665 21.5201 8.43331C22.0451 9.64998 22.3076 10.95 22.3076 12.3333C22.3076 13.7166 22.0451 15.0166 21.5201 16.2333C20.9951 17.45 20.2826 18.5083 19.3826 19.4083C18.4826 20.3083 17.4243 21.0208 16.2076 21.5458C14.991 22.0708 13.691 22.3333 12.3076 22.3333ZM12.3076 20.3333C13.191 20.3333 14.0243 20.2041 14.8076 19.9458C15.591 19.6875 16.3076 19.3166 16.9576 18.8333C16.3076 18.35 15.591 17.9791 14.8076 17.7208C14.0243 17.4625 13.191 17.3333 12.3076 17.3333C11.4243 17.3333 10.591 17.4625 9.80762 17.7208C9.02428 17.9791 8.30762 18.35 7.65762 18.8333C8.30762 19.3166 9.02428 19.6875 9.80762 19.9458C10.591 20.2041 11.4243 20.3333 12.3076 20.3333ZM12.3076 11.3333C12.741 11.3333 13.0993 11.1916 13.3826 10.9083C13.666 10.625 13.8076 10.2666 13.8076 9.83331C13.8076 9.39998 13.666 9.04165 13.3826 8.75831C13.0993 8.47498 12.741 8.33331 12.3076 8.33331C11.8743 8.33331 11.516 8.47498 11.2326 8.75831C10.9493 9.04165 10.8076 9.39998 10.8076 9.83331C10.8076 10.2666 10.9493 10.625 11.2326 10.9083C11.516 11.1916 11.8743 11.3333 12.3076 11.3333Z" fill="#444444"/>
</svg>
