<svg width="25" height="25" viewBox="0 0 25 25" fill="none" xmlns="http://www.w3.org/2000/svg">
<g clip-path="url(#clip0_2186_262)">
<path d="M7.0769 14.3333C6.5269 14.3333 6.05607 14.1375 5.6644 13.7458C5.27274 13.3541 5.0769 12.8833 5.0769 12.3333C5.0769 11.7833 5.27274 11.3125 5.6644 10.9208C6.05607 10.5291 6.5269 10.3333 7.0769 10.3333C7.6269 10.3333 8.09774 10.5291 8.4894 10.9208C8.88107 11.3125 9.0769 11.7833 9.0769 12.3333C9.0769 12.8833 8.88107 13.3541 8.4894 13.7458C8.09774 14.1375 7.6269 14.3333 7.0769 14.3333ZM7.0769 18.3333C5.41024 18.3333 3.99357 17.75 2.8269 16.5833C1.66024 15.4166 1.0769 14 1.0769 12.3333C1.0769 10.6666 1.66024 9.24998 2.8269 8.08331C3.99357 6.91665 5.41024 6.33331 7.0769 6.33331C8.19357 6.33331 9.20607 6.60831 10.1144 7.15831C11.0227 7.70831 11.7436 8.43331 12.2769 9.33331H21.0769L24.0769 12.3333L19.5769 16.8333L17.5769 15.3333L15.5769 16.8333L13.4519 15.3333H12.2769C11.7436 16.2333 11.0227 16.9583 10.1144 17.5083C9.20607 18.0583 8.19357 18.3333 7.0769 18.3333ZM7.0769 16.3333C8.01024 16.3333 8.83107 16.05 9.5394 15.4833C10.2477 14.9166 10.7186 14.2 10.9519 13.3333H14.0769L15.5269 14.3583L17.5769 12.8333L19.3519 14.2083L21.2269 12.3333L20.2269 11.3333H10.9519C10.7186 10.4666 10.2477 9.74998 9.5394 9.18331C8.83107 8.61665 8.01024 8.33331 7.0769 8.33331C5.9769 8.33331 5.03524 8.72498 4.2519 9.50831C3.46857 10.2916 3.0769 11.2333 3.0769 12.3333C3.0769 13.4333 3.46857 14.375 4.2519 15.1583C5.03524 15.9416 5.9769 16.3333 7.0769 16.3333Z" fill="#444444"/>
</g>
<defs>
<clipPath id="clip0_2186_262">
<rect width="24" height="24" fill="white" transform="translate(0.0769043 0.333313)"/>
</clipPath>
</defs>
</svg>
