<svg width="25" height="25" viewBox="0 0 25 25" fill="none" xmlns="http://www.w3.org/2000/svg">
<path d="M12.6924 17.3333C12.9757 17.3333 13.2132 17.2375 13.4049 17.0458C13.5965 16.8541 13.6924 16.6166 13.6924 16.3333C13.6924 16.05 13.5965 15.8125 13.4049 15.6208C13.2132 15.4291 12.9757 15.3333 12.6924 15.3333C12.409 15.3333 12.1715 15.4291 11.9799 15.6208C11.7882 15.8125 11.6924 16.05 11.6924 16.3333C11.6924 16.6166 11.7882 16.8541 11.9799 17.0458C12.1715 17.2375 12.409 17.3333 12.6924 17.3333ZM11.6924 13.3333H13.6924V7.33331H11.6924V13.3333ZM8.94238 21.3333L3.69238 16.0833V8.58331L8.94238 3.33331H16.4424L21.6924 8.58331V16.0833L16.4424 21.3333H8.94238ZM9.79238 19.3333H15.5924L19.6924 15.2333V9.43331L15.5924 5.33331H9.79238L5.69238 9.43331V15.2333L9.79238 19.3333Z" fill="#CCCCCC"/>
</svg>
