<svg width="26" height="25" viewBox="0 0 26 25" fill="none" xmlns="http://www.w3.org/2000/svg">
<path d="M12.4364 2.03809C12.6199 1.66673 13.1494 1.66673 13.3329 2.03809L15.8768 7.19336C16.0953 7.63607 16.5182 7.94268 17.0067 8.01367L22.6962 8.84082C23.106 8.90067 23.2692 9.40418 22.9725 9.69336L18.8563 13.7061C18.5028 14.0507 18.3412 14.5476 18.4247 15.0342L19.3964 20.7002C19.4664 21.1087 19.0376 21.4204 18.6708 21.2275L13.5829 18.5518C13.1459 18.322 12.6234 18.322 12.1864 18.5518L7.09851 21.2275C6.7317 21.4204 6.30287 21.1086 6.37292 20.7002L7.3446 15.0342C7.42806 14.5476 7.26649 14.0507 6.91296 13.7061L2.79675 9.69336C2.50009 9.40418 2.66329 8.90067 3.07312 8.84082L8.76257 8.01367C9.25113 7.94268 9.67396 7.63607 9.89246 7.19336L12.4364 2.03809Z" fill="#FFD602" stroke="black"/>
</svg>
