<svg width="26" height="25" viewBox="0 0 26 25" fill="none" xmlns="http://www.w3.org/2000/svg">
<path d="M12.5902 2.03809C12.7737 1.66673 13.3032 1.66673 13.4867 2.03809L16.0306 7.19336C16.2491 7.63607 16.672 7.94268 17.1605 8.01367L22.85 8.84082C23.2598 8.90067 23.423 9.40418 23.1263 9.69336L19.0101 13.7061C18.6566 14.0507 18.495 14.5476 18.5785 15.0342L19.5502 20.7002C19.6202 21.1087 19.1914 21.4204 18.8246 21.2275L13.7367 18.5518C13.2997 18.322 12.7772 18.322 12.3402 18.5518L7.25232 21.2275C6.8855 21.4204 6.45668 21.1086 6.52673 20.7002L7.49841 15.0342C7.58187 14.5476 7.4203 14.0507 7.06677 13.7061L2.95056 9.69336C2.65389 9.40418 2.8171 8.90067 3.22693 8.84082L8.91638 8.01367C9.40494 7.94268 9.82777 7.63607 10.0463 7.19336L12.5902 2.03809Z" fill="white" fill-opacity="0.25" stroke="black"/>
</svg>
