<svg width="26" height="25" viewBox="0 0 26 25" fill="none" xmlns="http://www.w3.org/2000/svg">
<path d="M12.5133 2.03809C12.6968 1.66673 13.2263 1.66673 13.4098 2.03809L15.9537 7.19336C16.1722 7.63607 16.5951 7.94268 17.0836 8.01367L22.7731 8.84082C23.1829 8.90067 23.3461 9.40418 23.0494 9.69336L18.9332 13.7061C18.5797 14.0507 18.4181 14.5476 18.5016 15.0342L19.4733 20.7002C19.5433 21.1087 19.1145 21.4204 18.7477 21.2275L13.6598 18.5518C13.2228 18.322 12.7003 18.322 12.2633 18.5518L7.17542 21.2275C6.8086 21.4204 6.37977 21.1086 6.44983 20.7002L7.42151 15.0342C7.50497 14.5476 7.3434 14.0507 6.98987 13.7061L2.87366 9.69336C2.57699 9.40418 2.7402 8.90067 3.15002 8.84082L8.83948 8.01367C9.32804 7.94268 9.75087 7.63607 9.96936 7.19336L12.5133 2.03809Z" fill="white" fill-opacity="0.25" stroke="black"/>
<mask id="mask0_2213_1664" style="mask-type:alpha" maskUnits="userSpaceOnUse" x="0" y="0" width="14" height="25">
<rect x="0.461548" width="13" height="25" fill="#FFD602"/>
</mask>
<g mask="url(#mask0_2213_1664)">
<path d="M12.5133 2.03809C12.6968 1.66673 13.2263 1.66673 13.4098 2.03809L15.9537 7.19336C16.1722 7.63607 16.5951 7.94268 17.0836 8.01367L22.7731 8.84082C23.1829 8.90067 23.3461 9.40418 23.0494 9.69336L18.9332 13.7061C18.5797 14.0507 18.4181 14.5476 18.5016 15.0342L19.4733 20.7002C19.5433 21.1087 19.1145 21.4204 18.7477 21.2275L13.6598 18.5518C13.2228 18.322 12.7003 18.322 12.2633 18.5518L7.17542 21.2275C6.8086 21.4204 6.37977 21.1086 6.44983 20.7002L7.42151 15.0342C7.50497 14.5476 7.3434 14.0507 6.98987 13.7061L2.87366 9.69336C2.57699 9.40418 2.7402 8.90067 3.15002 8.84082L8.83948 8.01367C9.32804 7.94268 9.75087 7.63607 9.96936 7.19336L12.5133 2.03809Z" fill="#FFD602" stroke="black"/>
</g>
</svg>
