<svg width="20" height="20" viewBox="0 0 20 20" fill="none" xmlns="http://www.w3.org/2000/svg">
<path d="M2.66979 4.49V3H8.55979V4.49H6.48979V10H4.74979V4.49H2.66979ZM15.0087 6.15L13.2087 9.3H12.4287L10.6487 6.25V10H9.01873V3H10.4587L12.8487 7.14L15.1987 3H16.6387L16.6487 10H15.0187L15.0087 6.15ZM6.38871 11C7.11538 11 7.75538 11.1433 8.30871 11.43C8.86871 11.7167 9.30204 12.1233 9.60871 12.65C9.92204 13.1767 10.0787 13.7933 10.0787 14.5C10.0787 15.2 9.92204 15.8167 9.60871 16.35C9.30204 16.8767 8.86871 17.2833 8.30871 17.57C7.75538 17.8567 7.11538 18 6.38871 18H3.28871V11H6.38871ZM6.29871 16.5C6.91204 16.5 7.40204 16.3233 7.76871 15.97C8.13538 15.61 8.31871 15.12 8.31871 14.5C8.31871 13.88 8.13538 13.3933 7.76871 13.04C7.40204 12.68 6.91204 12.5 6.29871 12.5H5.03871V16.5H6.29871ZM15.9713 14.35C16.3246 14.49 16.6046 14.71 16.8113 15.01C17.0246 15.3033 17.1313 15.66 17.1313 16.08C17.1313 16.6933 16.9013 17.1667 16.4413 17.5C15.9813 17.8333 15.3113 18 14.4313 18H10.8913V11H14.2412C15.0679 11 15.7013 11.1667 16.1413 11.5C16.5813 11.8267 16.8013 12.27 16.8013 12.83C16.8013 13.1567 16.7246 13.4533 16.5713 13.72C16.4246 13.98 16.2246 14.19 15.9713 14.35ZM12.6312 13.8H14.0113C14.7046 13.8 15.0513 13.56 15.0513 13.08C15.0513 12.6067 14.7046 12.37 14.0113 12.37H12.6312V13.8ZM14.2813 16.63C15.0079 16.63 15.3713 16.38 15.3713 15.88C15.3713 15.38 15.0079 15.13 14.2813 15.13H12.6312V16.63H14.2813Z" fill="white"/>
</svg>
