<svg width="25" height="25" viewBox="0 0 25 25" fill="none" xmlns="http://www.w3.org/2000/svg">
<path d="M16.3307 13.6333L14.8807 12.1833C15.0307 11.4 14.8057 10.6666 14.2057 9.9833C13.6057 9.29997 12.8307 9.0333 11.8807 9.1833L10.4307 7.7333C10.714 7.59997 11.0015 7.49997 11.2932 7.4333C11.5849 7.36663 11.8974 7.3333 12.2307 7.3333C13.4807 7.3333 14.5432 7.7708 15.4182 8.6458C16.2932 9.5208 16.7307 10.5833 16.7307 11.8333C16.7307 12.1666 16.6974 12.4791 16.6307 12.7708C16.564 13.0625 16.464 13.35 16.3307 13.6333ZM19.5307 16.7833L18.0807 15.3833C18.714 14.9 19.2765 14.3708 19.7682 13.7958C20.2599 13.2208 20.6807 12.5666 21.0307 11.8333C20.1974 10.15 19.0015 8.81247 17.4432 7.8208C15.8849 6.82913 14.1474 6.3333 12.2307 6.3333C11.7474 6.3333 11.2724 6.36663 10.8057 6.4333C10.339 6.49997 9.88071 6.59997 9.43071 6.7333L7.88071 5.1833C8.56405 4.89997 9.26405 4.68747 9.98071 4.5458C10.6974 4.40413 11.4474 4.3333 12.2307 4.3333C14.7474 4.3333 16.989 5.02913 18.9557 6.4208C20.9224 7.81247 22.3474 9.61663 23.2307 11.8333C22.8474 12.8166 22.3432 13.7291 21.7182 14.5708C21.0932 15.4125 20.364 16.15 19.5307 16.7833ZM20.0307 22.9333L15.8307 18.7833C15.2474 18.9666 14.6599 19.1041 14.0682 19.1958C13.4765 19.2875 12.864 19.3333 12.2307 19.3333C9.71405 19.3333 7.47238 18.6375 5.50571 17.2458C3.53905 15.8541 2.11405 14.05 1.23071 11.8333C1.58071 10.95 2.02238 10.1291 2.55571 9.3708C3.08905 8.61247 3.69738 7.9333 4.38071 7.3333L1.63071 4.5333L3.03071 3.1333L21.4307 21.5333L20.0307 22.9333ZM5.78071 8.7333C5.29738 9.16663 4.85571 9.64163 4.45571 10.1583C4.05571 10.675 3.71405 11.2333 3.43071 11.8333C4.26405 13.5166 5.45988 14.8541 7.01821 15.8458C8.57655 16.8375 10.314 17.3333 12.2307 17.3333C12.564 17.3333 12.889 17.3125 13.2057 17.2708C13.5224 17.2291 13.8474 17.1833 14.1807 17.1333L13.2807 16.1833C13.0974 16.2333 12.9224 16.2708 12.7557 16.2958C12.589 16.3208 12.414 16.3333 12.2307 16.3333C10.9807 16.3333 9.91821 15.8958 9.04321 15.0208C8.16821 14.1458 7.73071 13.0833 7.73071 11.8333C7.73071 11.65 7.74321 11.475 7.76821 11.3083C7.79321 11.1416 7.83071 10.9666 7.88071 10.7833L5.78071 8.7333Z" fill="#444444"/>
</svg>
