<svg width="25" height="25" viewBox="0 0 25 25" fill="none" xmlns="http://www.w3.org/2000/svg">
<path d="M12.1538 16.3333C13.4038 16.3333 14.4663 15.8958 15.3413 15.0208C16.2163 14.1458 16.6538 13.0833 16.6538 11.8333C16.6538 10.5833 16.2163 9.52081 15.3413 8.64581C14.4663 7.77081 13.4038 7.33331 12.1538 7.33331C10.9038 7.33331 9.84131 7.77081 8.96631 8.64581C8.09131 9.52081 7.65381 10.5833 7.65381 11.8333C7.65381 13.0833 8.09131 14.1458 8.96631 15.0208C9.84131 15.8958 10.9038 16.3333 12.1538 16.3333ZM12.1538 14.5333C11.4038 14.5333 10.7663 14.2708 10.2413 13.7458C9.71631 13.2208 9.45381 12.5833 9.45381 11.8333C9.45381 11.0833 9.71631 10.4458 10.2413 9.92081C10.7663 9.39581 11.4038 9.13331 12.1538 9.13331C12.9038 9.13331 13.5413 9.39581 14.0663 9.92081C14.5913 10.4458 14.8538 11.0833 14.8538 11.8333C14.8538 12.5833 14.5913 13.2208 14.0663 13.7458C13.5413 14.2708 12.9038 14.5333 12.1538 14.5333ZM12.1538 19.3333C9.72048 19.3333 7.50381 18.6541 5.50381 17.2958C3.50381 15.9375 2.05381 14.1166 1.15381 11.8333C2.05381 9.54998 3.50381 7.72915 5.50381 6.37081C7.50381 5.01248 9.72048 4.33331 12.1538 4.33331C14.5871 4.33331 16.8038 5.01248 18.8038 6.37081C20.8038 7.72915 22.2538 9.54998 23.1538 11.8333C22.2538 14.1166 20.8038 15.9375 18.8038 17.2958C16.8038 18.6541 14.5871 19.3333 12.1538 19.3333ZM12.1538 17.3333C14.0371 17.3333 15.7663 16.8375 17.3413 15.8458C18.9163 14.8541 20.1205 13.5166 20.9538 11.8333C20.1205 10.15 18.9163 8.81248 17.3413 7.82081C15.7663 6.82915 14.0371 6.33331 12.1538 6.33331C10.2705 6.33331 8.54131 6.82915 6.96631 7.82081C5.39131 8.81248 4.18714 10.15 3.35381 11.8333C4.18714 13.5166 5.39131 14.8541 6.96631 15.8458C8.54131 16.8375 10.2705 17.3333 12.1538 17.3333Z" fill="#444444"/>
</svg>
